<!DOCTYPE svg PUBLIC "-//W3C//DTD SVG 1.1//EN" "http://www.w3.org/Graphics/SVG/1.1/DTD/svg11.dtd">
<!-- Uploaded to: SVG Repo, www.svgrepo.com, Transformed by: SVG Repo Mixer Tools -->
<svg width="800px" height="800px" viewBox="0 0 64.00 64.00" xmlns="http://www.w3.org/2000/svg" fill="none" stroke="#000000" stroke-width="3.008" transform="matrix(1, 0, 0, 1, 0, 0)rotate(0)">
<g id="SVGRepo_bgCarrier" stroke-width="0"/>
<g id="SVGRepo_tracerCarrier" stroke-linecap="round" stroke-linejoin="round" stroke="#00" stroke-width="3.84">
<polyline points="44 8 44 16 52 16"/>
<polygon points="52 16 44 8 12 8 12 56 52 56 52 16"/>
<polyline points="24 40 20 32 24 24"/>
<polyline points="40 40 44 32 40 24"/>
<line x1="34" y1="20" x2="30" y2="44"/>
</g>
<g id="SVGRepo_iconCarrier">
<polyline points="44 8 44 16 52 16"/>
<polygon points="52 16 44 8 12 8 12 56 52 56 52 16"/>
<polyline points="24 40 20 32 24 24"/>
<polyline points="40 40 44 32 40 24"/>
<line x1="34" y1="20" x2="30" y2="44"/>
</g>
</svg>